<svg version="1.1" id="Layer_1" xmlns="http://www.w3.org/2000/svg" xmlns:xlink="http://www.w3.org/1999/xlink" x="0px" y="0px" viewBox="0 0 500 500" style="width: 166px;" xml:space="preserve" data-imageid="data-storage-3-12" imageName="Data Storage 3" class="illustrations_image">
<style type="text/css">
	.st0_data-storage-3-12{fill:#B7D951;}
	.st1_data-storage-3-12{fill:url(#SVGID_1_);}
	.st2_data-storage-3-12{fill:url(#SVGID_00000013905864179844735240000008545020399434312126_);}
	.st3_data-storage-3-12{fill:url(#SVGID_00000046333581752861369050000016438269871176825250_);}
	.st4_data-storage-3-12{fill:#0071BC;}
	.st5_data-storage-3-12{fill:#68E1FD;}
	.st6_data-storage-3-12{opacity:0.21;fill:#053855;enable-background:new    ;}
	.st7_data-storage-3-12{fill:#FFFFFF;}
	.st8_data-storage-3-12{opacity:0.44;fill:#FFFFFF;enable-background:new    ;}
	.st9_data-storage-3-12{fill:#053855;}
	.st10_data-storage-3-12{fill:#ADCEE1;}
	.st11_data-storage-3-12{opacity:0.1;fill:#053855;enable-background:new    ;}
	.st12_data-storage-3-12{fill:#CE4823;}
	.st13_data-storage-3-12{fill:#8969F9;}
	.st14_data-storage-3-12{fill:#F4D914;}
</style>
<g id="background_data-storage-3-12">
	<path class="st0_data-storage-3-12" d="M242.1,415.4L17.5,282.6c-7.1-4-13.3-10.6-6.3-14.9l225.5-130c3.4-2.1,8.5-3.5,12-1.5l235.8,136.9&#10;&#9;&#9;c7.2,4.1,8.4,15.8,1.3,19.9l-214,122.1C262.6,420.5,251.3,420.6,242.1,415.4z"/>
	
		<linearGradient id="SVGID_1_-data-storage-3-12" gradientUnits="userSpaceOnUse" x1="249.2484" y1="142.4119" x2="280.3784" y2="167.7919" gradientTransform="matrix(1 0 0 -1 0 502)">
		<stop offset="0" style="stop-color:#B7D951"/>
		<stop offset="1" style="stop-color:#006D29"/>
	</linearGradient>
	<polyline class="st1_data-storage-3-12" points="300.2,351.6 257.1,377.1 213.7,355 264.5,333.5 &#9;"/>
	
		<linearGradient id="SVGID_00000160892505038645287100000013014375480237404590_-data-storage-3-12" gradientUnits="userSpaceOnUse" x1="93.3985" y1="206.5412" x2="121.1085" y2="242.1012" gradientTransform="matrix(1 0 0 -1 0 502)">
		<stop offset="0" style="stop-color:#B7D951"/>
		<stop offset="1" style="stop-color:#006D29"/>
	</linearGradient>
	<polygon style="fill:url(#SVGID_00000160892505038645287100000013014375480237404590_);" points="234.6,222.2 87.5,302.9 &#10;&#9;&#9;28.5,270.7 138.7,201.8 &#9;"/>
	
		<linearGradient id="SVGID_00000155843790286829910790000014370577154843535761_-data-storage-3-12" gradientUnits="userSpaceOnUse" x1="298.1854" y1="183.1548" x2="335.0854" y2="221.9449" gradientTransform="matrix(1 0 0 -1 0 502)">
		<stop offset="0" style="stop-color:#B7D951"/>
		<stop offset="1" style="stop-color:#006D29"/>
	</linearGradient>
	<polygon style="fill:url(#SVGID_00000155843790286829910790000014370577154843535761_);" points="410.8,282.1 297.4,348.3 &#10;&#9;&#9;228.4,310.6 338.5,241.7 &#9;"/>
</g>
<g id="technology_data-storage-3-12">
	<polygon class="st4_data-storage-3-12" points="214.8,368 72.9,285.8 104.9,266.8 106.2,268.9 77.9,285.8 214.8,365.1 340.9,292 342.1,294.1 &#9;"/>
	<polyline class="st5_data-storage-3-12 targetColor" points="234.9,161 234.6,222.2 181.1,252.3 142.1,229.8 142.1,168.9 &#9;" style="fill: rgb(104, 225, 253);"/>
	<polygon class="st6_data-storage-3-12" points="181.1,252.3 181.2,191.4 142.1,168.9 142.1,229.8 &#9;"/>
	<polygon class="st6_data-storage-3-12" points="227,174.1 227,187.4 189.9,208.5 189.9,195.6 &#9;"/>
	<polygon class="st6_data-storage-3-12" points="227,189.9 227,203.1 189.9,224.3 189.9,211.3 &#9;"/>
	
		<ellipse transform="matrix(9.497701e-02 -0.9955 0.9955 9.497701e-02 -18.3423 375.5092)" class="st7_data-storage-3-12" cx="197.3" cy="197.8" rx="2.4" ry="1.7"/>
	
		<ellipse transform="matrix(9.497701e-02 -0.9955 0.9955 9.497701e-02 -32.8899 390.9005)" class="st7_data-storage-3-12" cx="198.5" cy="213.5" rx="2.4" ry="1.7"/>
	<polygon class="st6_data-storage-3-12" points="227,205.1 227,218.4 189.9,239.6 189.9,226.6 &#9;"/>
	
		<ellipse transform="matrix(9.497701e-02 -0.9955 0.9955 9.497701e-02 -48.1102 404.7214)" class="st7_data-storage-3-12" cx="198.5" cy="228.8" rx="2.4" ry="1.7"/>
	<polygon class="st5_data-storage-3-12 targetColor" points="181.2,191.4 234.9,161 195.6,137.9 142.1,168.8 &#9;" style="fill: rgb(104, 225, 253);"/>
	<polygon class="st8_data-storage-3-12" points="181.2,191.4 234.9,161 195.6,137.9 142.1,168.8 &#9;"/>
	<polyline class="st5_data-storage-3-12 targetColor" points="173.5,196.1 173.2,257.3 119.6,287.4 80.7,264.9 80.7,204 &#9;" style="fill: rgb(104, 225, 253);"/>
	<polygon class="st6_data-storage-3-12" points="119.6,287.4 119.8,226.5 80.7,204 80.7,264.9 &#9;"/>
	<polygon class="st6_data-storage-3-12" points="165.6,209.2 165.6,222.5 128.5,243.6 128.5,230.7 &#9;"/>
	<polygon class="st6_data-storage-3-12" points="165.6,225 165.6,238.2 128.5,259.4 128.5,246.4 &#9;"/>
	
		<ellipse transform="matrix(9.497701e-02 -0.9955 0.9955 9.497701e-02 -108.8791 346.1373)" class="st7_data-storage-3-12" cx="135.9" cy="232.9" rx="2.4" ry="1.7"/>
	
		<ellipse transform="matrix(9.497701e-02 -0.9955 0.9955 9.497701e-02 -123.4339 361.5188)" class="st7_data-storage-3-12" cx="137.1" cy="248.6" rx="2.4" ry="1.7"/>
	<polygon class="st6_data-storage-3-12" points="165.6,240.3 165.6,253.5 128.5,274.7 128.5,261.7 &#9;"/>
	
		<ellipse transform="matrix(9.497701e-02 -0.9955 0.9955 9.497701e-02 -138.6372 375.3604)" class="st7_data-storage-3-12" cx="137.1" cy="263.9" rx="2.4" ry="1.7"/>
	<polygon class="st5_data-storage-3-12 targetColor" points="119.8,226.5 173.5,196.1 134.1,173 80.7,203.9 &#9;" style="fill: rgb(104, 225, 253);"/>
	<polygon class="st8_data-storage-3-12" points="119.8,226.5 173.5,196.1 134.1,173 80.7,203.9 &#9;"/>
	<polyline class="st5_data-storage-3-12 targetColor" points="234.8,96.9 234.6,158.1 181,188.2 142.1,165.7 142.1,104.8 &#9;" style="fill: rgb(104, 225, 253);"/>
	<polygon class="st6_data-storage-3-12" points="181,188.2 181.1,127.3 142.1,104.8 142.1,165.7 &#9;"/>
	<polygon class="st6_data-storage-3-12" points="227,110.1 227,123.3 189.9,144.5 189.9,131.5 &#9;"/>
	<polygon class="st6_data-storage-3-12" points="227,125.8 227,139 189.9,160.2 189.9,147.2 &#9;"/>
	
		<ellipse transform="matrix(9.497701e-02 -0.9955 0.9955 9.497701e-02 45.4034 317.4755)" class="st7_data-storage-3-12" cx="197.3" cy="133.8" rx="2.4" ry="1.7"/>
	
		<ellipse transform="matrix(9.497701e-02 -0.9955 0.9955 9.497701e-02 30.8478 332.8561)" class="st7_data-storage-3-12" cx="198.5" cy="149.5" rx="2.4" ry="1.7"/>
	<polygon class="st6_data-storage-3-12" points="227,141.1 227,154.3 189.9,175.5 189.9,162.5 &#9;"/>
	
		<ellipse transform="matrix(9.497701e-02 -0.9955 0.9955 9.497701e-02 15.6445 346.6977)" class="st7_data-storage-3-12" cx="198.5" cy="164.7" rx="2.4" ry="1.7"/>
	<polygon class="st5_data-storage-3-12 targetColor" points="181.1,127.3 234.8,96.9 195.5,73.9 142.1,104.7 &#9;" style="fill: rgb(104, 225, 253);"/>
	<polygon class="st8_data-storage-3-12" points="181.1,127.3 234.8,96.9 195.5,73.9 142.1,104.7 &#9;"/>
	<polyline class="st5_data-storage-3-12 targetColor" points="173.4,132 173.1,193.3 119.6,223.3 80.7,200.8 80.7,139.9 &#9;" style="fill: rgb(104, 225, 253);"/>
	<polygon class="st6_data-storage-3-12" points="119.6,223.3 119.7,162.4 80.7,139.9 80.7,200.8 &#9;"/>
	<polygon class="st6_data-storage-3-12" points="165.6,145.2 165.6,158.4 128.5,179.6 128.5,166.6 &#9;"/>
	<polygon class="st6_data-storage-3-12" points="165.6,160.9 165.6,174.1 128.5,195.3 128.5,182.3 &#9;"/>
	
		<ellipse transform="matrix(9.497701e-02 -0.9955 0.9955 9.497701e-02 -45.1243 288.1136)" class="st7_data-storage-3-12" cx="135.9" cy="168.9" rx="2.4" ry="1.7"/>
	
		<ellipse transform="matrix(9.497701e-02 -0.9955 0.9955 9.497701e-02 -59.6899 303.5032)" class="st7_data-storage-3-12" cx="137.1" cy="184.6" rx="2.4" ry="1.7"/>
	<polygon class="st6_data-storage-3-12" points="165.6,176.2 165.6,189.4 128.5,210.6 128.5,197.6 &#9;"/>
	
		<ellipse transform="matrix(9.497701e-02 -0.9955 0.9955 9.497701e-02 -74.9102 317.3241)" class="st7_data-storage-3-12" cx="137.1" cy="199.9" rx="2.4" ry="1.7"/>
	<polygon class="st5_data-storage-3-12 targetColor" points="119.7,162.4 173.4,132 134.1,109 80.7,139.8 &#9;" style="fill: rgb(104, 225, 253);"/>
	<polygon class="st8_data-storage-3-12" points="119.7,162.4 173.4,132 134.1,109 80.7,139.8 &#9;"/>
	<polyline class="st5_data-storage-3-12 targetColor" points="292.9,194.6 293.3,272.4 361.3,310.6 410.8,282.1 410.8,204.6 &#9;" style="fill: rgb(104, 225, 253);"/>
	<polygon class="st6_data-storage-3-12" points="361.3,310.6 361.2,233.3 410.8,204.6 410.8,282.1 &#9;"/>
	<polygon class="st6_data-storage-3-12" points="302.9,211.3 302.9,228.1 350.1,255.1 350.1,238.6 &#9;"/>
	<polygon class="st6_data-storage-3-12" points="302.9,231.3 302.9,248.1 350.1,275.1 350.1,258.6 &#9;"/>
	
		<ellipse transform="matrix(0.9955 -9.497707e-02 9.497707e-02 0.9955 -21.3922 33.4428)" class="st7_data-storage-3-12" cx="340.6" cy="241.4" rx="2.1" ry="3"/>
	
		<ellipse transform="matrix(0.9955 -9.497707e-02 9.497707e-02 0.9955 -23.294 33.3907)" class="st7_data-storage-3-12" cx="339.1" cy="261.4" rx="2.1" ry="3"/>
	<polygon class="st6_data-storage-3-12" points="302.9,250.7 302.9,267.6 350.1,294.5 350.1,278 &#9;"/>
	
		<ellipse transform="matrix(0.9955 -9.497707e-02 9.497707e-02 0.9955 -25.1386 33.4779)" class="st7_data-storage-3-12" cx="339.1" cy="280.8" rx="2.1" ry="3"/>
	<polygon class="st5_data-storage-3-12 targetColor" points="361.2,233.3 292.9,194.6 342.9,165.3 410.8,204.5 &#9;" style="fill: rgb(104, 225, 253);"/>
	<polygon class="st8_data-storage-3-12" points="361.2,233.3 292.9,194.6 342.9,165.3 410.8,204.5 &#9;"/>
</g>
<g id="lock_data-storage-3-12">
	<path class="st9_data-storage-3-12" d="M167.4,225.6c0,0-8.4-5.4-8.4-5.5s5.6-4.4,5.6-4.4l3.3,6.2"/>
	<polyline class="st9_data-storage-3-12" points="199.8,160.1 192.3,155.3 190.5,165.1 198,163.6 &#9;"/>
	<path class="st9_data-storage-3-12" d="M189.4,155c1.3-0.7,2.9-0.3,3.6,0.9c0.2,0.4,0.4,0.9,0.4,1.3l0.8,42c0,1.3-0.7,2.6-1.8,3.2l-29.5,17.6&#10;&#9;&#9;c-1.8,1.1-4.1,0.5-5.2-1.3c-0.3-0.6-0.5-1.3-0.5-1.9v-41c0-1.4,0.7-2.6,1.9-3.3L189.4,155z"/>
	<path class="st4_data-storage-3-12" d="M197.4,160.3c1.3-0.7,2.9-0.3,3.6,0.9c0.2,0.4,0.4,0.8,0.4,1.3l0.8,42c0,1.3-0.7,2.5-1.8,3.2l-29.6,17.6&#10;&#9;&#9;c-1.8,1.1-4.1,0.5-5.2-1.3c-0.3-0.6-0.5-1.2-0.5-1.9v-41.1c0-1.4,0.7-2.6,1.9-3.3L197.4,160.3z"/>
	
		<ellipse transform="matrix(7.950298e-02 -0.9968 0.9968 7.950298e-02 -14.7286 355.2061)" class="st5_data-storage-3-12 targetColor" cx="185" cy="185.6" rx="10.1" ry="6.4" style="fill: rgb(104, 225, 253);"/>
	<path class="st5_data-storage-3-12 targetColor" d="M186.5,206.9h-1.3c-1,0-1.8-0.8-1.8-1.8v-16.4c0-1,0.8-1.8,1.8-1.8h1.3c1,0,1.8,0.8,1.8,1.8v16.4&#10;&#9;&#9;C188.3,206.1,187.5,206.9,186.5,206.9z" style="fill: rgb(104, 225, 253);"/>
	<ellipse class="st4_data-storage-3-12" cx="168.7" cy="172" rx="3.1" ry="1.8"/>
	<path class="st4_data-storage-3-12" d="M177.9,139.5c14.3-3.4,14.2,13.1,14.2,13.1v5.9c0.1,0.9,0,1.7-0.2,2.6c-0.7,0.7-1.7,1.1-2.7,1&#10;&#9;&#9;c-0.9,0-2.1-0.1-2.6-0.9c-0.2-0.7-0.3-1.5-0.2-2.2c0.1-1.4,0.1-2.8,0.1-4.1c-0.1-3-0.4-6.6-2.3-9c-1.3-1.6-3.5-2.1-5.3-1.3&#10;&#9;&#9;c-7.3,2.4-7.1,11.2-7.1,11.2V172h-6.1v-16.7C165.6,155.3,166.8,142.2,177.9,139.5z"/>
</g>
<g id="laptop_data-storage-3-12">
	<polyline class="st10_data-storage-3-12" points="297.4,191.1 297.4,193.1 298.5,194.4 &#9;"/>
	<path class="st4_data-storage-3-12" d="M338.1,166.4l-39.5,24.5c-1.1,0.7-1.5,2.2-0.8,3.4c0.2,0.3,0.5,0.6,0.9,0.8l59.9,33.9c1.7,1,3.8,1,5.5,0&#10;&#9;&#9;l39.3-23.1c2.9-2.3,2.6-6.8,0-7l-59.6-32.6C342,165.3,339.8,165.3,338.1,166.4z"/>
	<path class="st7_data-storage-3-12" d="M338.1,164.8l-39.5,24.5c-1.2,0.7-1.5,2.2-0.8,3.4c0.2,0.3,0.5,0.6,0.9,0.8l59.9,33.9c1.7,1,3.8,1,5.5,0&#10;&#9;&#9;l39.3-23.1c1.5-0.8,1.9-2.7,1.1-4.2c-0.3-0.5-0.6-0.8-1.1-1.1l-59.6-34.3C342.1,163.7,339.8,163.7,338.1,164.8z"/>
	<path class="st9_data-storage-3-12" d="M339.7,161.4c0,0,16.4-52.9,16.3-52.9s0.5-2.3,3.4-1l62.9,37.1c0,0,3.1,1.2,2.5,4.1s-16,51.8-16,51.8&#10;&#9;&#9;c-0.7,1-1.9,1.4-3,1c-1.9-0.6-64.7-37-64.7-37C340,164,339.3,162.6,339.7,161.4z"/>
	<polygon class="st5_data-storage-3-12 targetColor" points="357,112.3 421.5,149.9 408.1,194.8 342.9,158.3 &#9;" style="fill: rgb(104, 225, 253);"/>
	<path class="st5_data-storage-3-12 targetColor" d="M335.7,170.4l-14.4,9c-0.8,0.5-1.1,1.6-0.6,2.4c0.2,0.3,0.4,0.5,0.6,0.6l51.8,29.6c1.6,0.9,3.5,0.9,5.1,0&#10;&#9;&#9;c3.3-1.9,9.1-5.4,12.6-7.6c1-0.6,1.3-1.9,0.7-2.9c-0.2-0.3-0.4-0.5-0.7-0.7c-10.5-6.1-44.7-26-52.2-30.3&#10;&#9;&#9;C337.7,169.8,336.6,169.8,335.7,170.4z" style="fill: rgb(104, 225, 253);"/>
	<path class="st5_data-storage-3-12 targetColor" d="M336.5,194.8l18.1,10.2c0.9,0.5,1.2,1.6,0.7,2.5c-0.2,0.3-0.4,0.5-0.7,0.7l-10.6,6.2c-0.7,0.4-1.7,0.4-2.4,0&#10;&#9;&#9;L323,203.8c-0.7-0.4-1-1.4-0.6-2.1c0.1-0.2,0.3-0.4,0.6-0.6l11.1-6.4C334.8,194.4,335.7,194.4,336.5,194.8z" style="fill: rgb(104, 225, 253);"/>
	<path class="st11_data-storage-3-12" d="M335.7,170.4l-14.4,9c-0.8,0.5-1.1,1.6-0.6,2.4c0.2,0.3,0.4,0.5,0.6,0.6l51.8,29.6c1.6,0.9,3.5,0.9,5.1,0&#10;&#9;&#9;c3.3-1.9,9.1-5.4,12.6-7.6c1-0.6,1.3-1.9,0.7-2.9c-0.2-0.3-0.4-0.5-0.7-0.7c-10.5-6.1-44.7-26-52.2-30.3&#10;&#9;&#9;C337.7,169.8,336.6,169.8,335.7,170.4z"/>
	<path class="st11_data-storage-3-12" d="M336.5,194.8l18.1,10.2c0.9,0.5,1.2,1.6,0.7,2.5c-0.2,0.3-0.4,0.5-0.7,0.7l-10.6,6.2c-0.7,0.4-1.7,0.4-2.4,0&#10;&#9;&#9;L323,203.8c-0.7-0.4-1-1.4-0.6-2.1c0.1-0.2,0.3-0.4,0.6-0.6l11.1-6.4C334.8,194.4,335.7,194.4,336.5,194.8z"/>
	<path class="st9_data-storage-3-12" d="M382.2,163c-0.1-1.7-0.8-3.3-1.9-4.6c-2.3-2.7-5.9-2.9-9.1-2.3c-2.4,0.5-1.4,4.1,1,3.6&#10;&#9;&#9;c1.9-0.4,4.2-0.4,5.5,1.3c0.3,0.4,0.6,0.9,0.7,1.5c0.1,0.2,0.1,0.4,0.1,0.6s0-0.5,0-0.1C378.6,165.4,382.4,165.4,382.2,163&#10;&#9;&#9;L382.2,163z"/>
	<path class="st9_data-storage-3-12" d="M389.9,160.7c-0.3-3.2-1.5-6.3-3.5-8.8c-4.2-5.3-11-5.3-17-3.4c-2.3,0.7-1.3,4.3,1,3.6&#10;&#9;&#9;c4.9-1.5,10.5-1.8,13.6,2.9c0.8,1.2,1.4,2.6,1.7,4c0.2,0.6,0.4,1.7,0.4,1.7C386.4,163.1,390.1,163.1,389.9,160.7L389.9,160.7z"/>
	<path class="st9_data-storage-3-12" d="M397.1,158.5c1.5-14.9-16.1-26.3-28.9-17.7c-2,1.3-0.1,4.6,1.9,3.2c10.6-7.1,24.5,2.3,23.3,14.4&#10;&#9;&#9;C393.1,160.9,396.9,160.9,397.1,158.5L397.1,158.5z"/>
</g>
<g id="character_data-storage-3-12">
	<path class="st12_data-storage-3-12" d="M346.3,184.3l0.3-0.1c1.7-0.6,1-3.3-0.7-2.7l-0.6,0.2c0.3-0.7-0.1-1.6-0.8-1.8c-0.3-0.1-0.5-0.1-0.8-0.1&#10;&#9;&#9;c-1.1,0.2-2.2,0.5-3.3,0.9c-0.5,0.1-1,0.2-1.5,0.3c-1.6,0.4-3.1,0.9-4.6,1.4c0,0,0.1-0.1,0.1-0.1c0.7-1.4,3.3-3.2,1.7-4.4&#10;&#9;&#9;c-2.2-1.6-6.6,4.8-7.2,6.1c-1.1,2.4-3.1,4.4-5.5,5.5c-1.3,0.7,2.3-0.8,3.5-0.7c0.1,0.2,0.3,0.4,0.5,0.5c0.3,0.4,0.7,0.7,1.1,0.7&#10;&#9;&#9;c0.1,0.7,0.8,1.2,1.5,1.1c0.1,0,0.1,0,0.2,0l0.7-0.2c-0.8,0.6-1.5,1.2-2.2,1.7c-1.2,0.9,0.2,2.7,1.5,2.3c0.4,0.4,1.1,0.5,1.6,0.2&#10;&#9;&#9;c2.7-1.2,5.3-2.6,7.9-4c1.4-0.7,2.8-1.5,4.1-2.4c0.2,0,0.5-0.1,0.7-0.2c1.1-0.5,2.5-1.1,3-2.2c0.3-0.8,0-1.7-0.8-2.1&#10;&#9;&#9;C346.5,184.4,346.4,184.3,346.3,184.3z"/>
	<path class="st9_data-storage-3-12" d="M285,339.5c-0.1-4.2-4.9-4.4-6.1-7.3c-0.4-1.1-0.5-2.4-0.3-3.5c-1,0-1.8-0.8-1.8-1.8c0-0.1,0-0.1,0-0.2&#10;&#9;&#9;c0.1-2.1,0.6-4.2,1.2-6.2l-6.6-6c0,0-5.3,8.4-5.8,10.2s-0.9,15.8-0.4,17.2s2.8,1,4,0.7s0-11,1.1-10.4s1.8,9.8,3.3,11.8&#10;&#9;&#9;s10.7,1.2,10.7,1.2S285.1,343.7,285,339.5z"/>
	<path class="st12_data-storage-3-12" d="M278.2,327c-1.1-7.9,1.6-22.1,1.6-22.1l-10.9,0.8l-1.7,15.9c0.2,0.3,0.3,0.6,0.4,0.9c0,0.1,0,0.1,0,0.2&#10;&#9;&#9;l0.2,0.3c0.7,0.8,2.6,0.9,3.5,1.4c1.9,1,2.3,2.8,2.5,4.7c0.5,3.5,0.5,8.9,10,7.4C283.8,336.6,279.4,335,278.2,327z"/>
	<path class="st9_data-storage-3-12" d="M300.6,346c-0.3-4.2-5.1-4.2-6.5-7c-0.4-1.1-0.6-2.3-0.5-3.5c-1,0.1-1.9-0.7-1.9-1.7c0,0,0-0.1,0-0.1&#10;&#9;&#9;c0-2.1,0.3-4.2,1-6.2l-6.9-5.7c0,0-4.9,8.6-5.2,10.5s-0.1,15.9,0.4,17.2s2.8,0.9,4,0.5s-0.5-11,0.6-10.5s2.3,9.7,3.9,11.6&#10;&#9;&#9;s10.8,0.6,10.8,0.6S300.9,350.2,300.6,346z"/>
	<path class="st12_data-storage-3-12" d="M293.3,333.9c-1.5-7.9,0.5-22.2,0.5-22.2L283,313l-1,16c0.2,0.3,0.4,0.6,0.4,0.9c0,0.1,0,0.1,0.1,0.2l0.2,0.3&#10;&#9;&#9;c0.7,0.8,2.6,0.8,3.5,1.2c2,0.9,2.4,2.6,2.7,4.6c0.6,3.5,0.9,8.9,10.4,6.9C299.3,343.1,294.8,341.7,293.3,333.9z"/>
	<path class="st13_data-storage-3-12" d="M269.2,167.3c0,0-6.2,1.8-9.2,17.2s-4.6,24-1.4,28.6c3.2,4.6,14.5,12.1,14.5,12.1l13.2-17.8"/>
	<path class="st13_data-storage-3-12" d="M272.1,204c0,0-15-31.4-3-36.7s27,2.5,29.5,10.4s-1.1,31.7-1.1,31.7S281.7,209.9,272.1,204z"/>
	<path class="st13_data-storage-3-12" d="M296.6,174c0,0,10.4,17.5,18.4,15.1s10.2-6,10.2-6s6.8,7.2,5.6,15.6c0,0-8.8,8.6-17.6,9.8s-19.7-10-19.7-10"/>
	<path class="st9_data-storage-3-12" d="M268.1,315.4c11.8,6,18.5,11.9,31.5,8.9c3.7-0.9,7-53.4,7-56.1c0.1-17.3,2.4-28.3-2-45.1&#10;&#9;&#9;c-0.6-2.3-4.1-15.3-6.7-15.7l-25.7-3.4c0,0-5,8.8-5.2,27.6c-0.1,12.6,1.6,25.1,1.9,37.7c0,7.3-0.7,14.6-2.2,21.7&#10;&#9;&#9;c-0.7,3.7-1.9,7.7-2.8,11.8c-0.5,3.1-0.8,6.2-0.9,9.3C264.5,313.3,266.2,314.4,268.1,315.4z"/>
	<path class="st9_data-storage-3-12" d="M273.1,169.7c-0.5-0.3-3-5,0.4-6.2s14.5,0,14.4,2s0,5.1,0,5.1C283,172.3,277.7,172,273.1,169.7z"/>
	<path class="st9_data-storage-3-12" d="M272.5,202.8c-3.4-8-5.3-16.5-5.7-25.2c0-0.9-1.5-0.9-1.4,0c0.4,8.9,2.4,17.7,5.9,25.9&#10;&#9;&#9;C271.6,204.3,272.9,203.6,272.5,202.8z"/>
	<path class="st14_data-storage-3-12" d="M260.2,156.7c-3,5.2,4.1,15.7-3,18.6c-1.6,0.5-3.3,0.8-5,0.8c-3.6,0.2-7,1.2-9.4,4.1&#10;&#9;&#9;c-3.8,4.5-3.5,11.8-0.1,16.4c3.9,5.3,10.4,6,16,3.5c13.3-5.9,4.8-31.2,14.9-38l0.5-11.4C274.1,150.7,264,150.1,260.2,156.7z"/>
	<path class="st12_data-storage-3-12" d="M291.5,147.7c0,0-0.3,16.4-3.5,18.5s-12.1-1-12.4-5.6S291.5,147.7,291.5,147.7z"/>
	<path class="st14_data-storage-3-12" d="M282.4,139.9c0,0-5.6-2.2-13.9,2.4s-5.5,20,4.1,23.1s12.1-6.2,13.9-10.1s5-5.1,4.9-6.9&#10;&#9;&#9;S291.2,139.6,282.4,139.9z"/>
</g>
</svg>